<svg xmlns="http://www.w3.org/2000/svg" xmlns:xlink="http://www.w3.org/1999/xlink" viewBox="0,0,256,256" width="48px" height="48px" fill-rule="nonzero" fill="#23e6ac"><g fill="#23e6ac" fill-rule="nonzero" stroke="none" stroke-width="1" stroke-linecap="butt" stroke-linejoin="miter" stroke-miterlimit="10" stroke-dasharray="" stroke-dashoffset="0" font-family="none" font-weight="none" font-size="none" text-anchor="none" style="mix-blend-mode: normal"><g transform="scale(10.66667,10.66667)"><path d="M10.5,2c-0.82843,0 -1.5,0.67157 -1.5,1.5c0,0.82843 0.67157,1.5 1.5,1.5c0.82843,0 1.5,-0.67157 1.5,-1.5c0,-0.82843 -0.67157,-1.5 -1.5,-1.5zM15,5.75c-0.9665,0 -1.75,0.7835 -1.75,1.75c0,0.9665 0.7835,1.75 1.75,1.75c0.9665,0 1.75,-0.7835 1.75,-1.75c0,-0.9665 -0.7835,-1.75 -1.75,-1.75zM10.5,6c-0.82843,0 -1.5,0.67157 -1.5,1.5c0,0.82843 0.67157,1.5 1.5,1.5c0.82843,0 1.5,-0.67157 1.5,-1.5c0,-0.82843 -0.67157,-1.5 -1.5,-1.5zM6.5,6.25c-0.69036,0 -1.25,0.55964 -1.25,1.25c0,0.69036 0.55964,1.25 1.25,1.25c0.69036,0 1.25,-0.55964 1.25,-1.25c0,-0.69036 -0.55964,-1.25 -1.25,-1.25zM20,9.5c-1.10457,0 -2,0.89543 -2,2c0,1.10457 0.89543,2 2,2c1.10457,0 2,-0.89543 2,-2c0,-1.10457 -0.89543,-2 -2,-2zM15,9.75c-0.9665,0 -1.75,0.7835 -1.75,1.75c0,0.9665 0.7835,1.75 1.75,1.75c0.9665,0 1.75,-0.7835 1.75,-1.75c0,-0.9665 -0.7835,-1.75 -1.75,-1.75zM10.5,10c-0.82843,0 -1.5,0.67157 -1.5,1.5c0,0.82843 0.67157,1.5 1.5,1.5c0.82843,0 1.5,-0.67157 1.5,-1.5c0,-0.82843 -0.67157,-1.5 -1.5,-1.5zM3,10.25c-0.69036,0 -1.25,0.55964 -1.25,1.25c0,0.69036 0.55964,1.25 1.25,1.25c0.69036,0 1.25,-0.55964 1.25,-1.25c0,-0.69036 -0.55964,-1.25 -1.25,-1.25zM6.5,10.25c-0.69036,0 -1.25,0.55964 -1.25,1.25c0,0.69036 0.55964,1.25 1.25,1.25c0.69036,0 1.25,-0.55964 1.25,-1.25c0,-0.69036 -0.55964,-1.25 -1.25,-1.25zM15,13.75c-0.9665,0 -1.75,0.7835 -1.75,1.75c0,0.9665 0.7835,1.75 1.75,1.75c0.9665,0 1.75,-0.7835 1.75,-1.75c0,-0.9665 -0.7835,-1.75 -1.75,-1.75zM10.5,14c-0.82843,0 -1.5,0.67157 -1.5,1.5c0,0.82843 0.67157,1.5 1.5,1.5c0.82843,0 1.5,-0.67157 1.5,-1.5c0,-0.82843 -0.67157,-1.5 -1.5,-1.5zM6.5,14.25c-0.69036,0 -1.25,0.55964 -1.25,1.25c0,0.69036 0.55964,1.25 1.25,1.25c0.69036,0 1.25,-0.55964 1.25,-1.25c0,-0.69036 -0.55964,-1.25 -1.25,-1.25zM10.5,18c-0.82843,0 -1.5,0.67157 -1.5,1.5c0,0.82843 0.67157,1.5 1.5,1.5c0.82843,0 1.5,-0.67157 1.5,-1.5c0,-0.82843 -0.67157,-1.5 -1.5,-1.5z"></path></g></g></svg>